<svg xmlns="http://www.w3.org/2000/svg" style="isolation:isolate" viewBox="0 0 900 900" width="1200" height="1200"><defs><clipPath id="a"><path d="M0 0h900v900H0z"/></clipPath></defs><g clip-path="url(#a)"><circle vector-effect="non-scaling-stroke" cx="450" cy="450" r="429.062" fill="#333" stroke-width="20" stroke="#CDCDCD" stroke-linecap="square" stroke-miterlimit="3"/><path d="M216.188 627.305q-48.985 0-81.915-34.453-32.929-34.454-32.929-98.789 0-64.336 34.101-98.672 34.102-34.336 91.758-34.336 29.766 0 67.734 11.953v-71.953q0-6.328 4.102-10.43 4.102-4.102 10.195-4.102H361.5q6.328 0 10.43 4.102 4.101 4.102 4.101 10.43V608.32q0 6.094-4.101 10.196-4.102 4.101-10.43 4.101h-45q-6.328 0-10.313-4.101-3.984-4.102-3.984-10.196v-7.265q-37.031 26.25-86.015 26.25zm27.89-209.532q-32.344 0-45.703 18.165-13.359 18.164-13.359 58.242 0 40.078 12.656 58.359t38.086 18.281q25.429 0 59.179-21.093V427.148q-30.234-9.375-50.859-9.375zm204.297 182.813V308.789q0-9.141 6.562-15.703 6.563-6.563 15.704-6.563h190.546q70.079 0 103.36 40.313 18.516 22.266 18.516 56.836t-31.641 60.351q45 24.141 45 75 0 50.86-35.977 77.227-35.976 26.367-88.242 26.367H470.641q-9.141 0-15.704-6.445-6.562-6.445-6.562-15.586zm88.359-121.875v80.625h134.063q18.047 0 27.656-10.781 9.61-10.782 9.61-29.532t-9.61-29.531q-9.609-10.781-27.656-10.781H536.734zm0-128.672v67.031h125.391q14.766 0 23.672-8.789t8.906-24.609q0-15.82-8.906-24.727-8.906-8.906-23.672-8.906H536.734z" fill="#D9D9D9"/><text transform="translate(2775.53 405.56)" font-family="Archivo Narrow" font-weight="400" font-size="20" letter-spacing="-70" fill="#d9d9d9">Seu Texto</text></g></svg>